<mxfile host="app.diagrams.net" modified="2022-04-06T07:56:00.568Z" agent="5.0 (Windows NT 10.0; Win64; x64) AppleWebKit/537.36 (KHTML, like Gecko) Chrome/100.0.4896.60 Safari/537.36 Edg/100.0.1185.29" etag="K6tT1pvY_E1awgXO4s2q" version="17.2.6" type="github">
  <diagram id="zXRnS9ULtj05kj3MjnJf" name="Page-1">
    <mxGraphModel dx="1507" dy="400" grid="1" gridSize="10" guides="1" tooltips="1" connect="1" arrows="1" fold="1" page="1" pageScale="1" pageWidth="827" pageHeight="1169" math="0" shadow="0">
      <root>
        <mxCell id="0" />
        <mxCell id="1" parent="0" />
        <mxCell id="53vLAQA_7V68Fcpc-zCj-1" value="&lt;b style=&quot;font-weight: normal&quot; id=&quot;docs-internal-guid-013ca9e4-7fff-08f1-9e20-8c006c517397&quot;&gt;&lt;img width=&quot;946px;&quot; height=&quot;258px;&quot; src=&quot;https://lh4.googleusercontent.com/l5GuFY9HK2DnafpygLRtXnhZZh7t27mI_-nnzUYbyQmie47MlDp3J1GvnN5OLzfiVtj5l7EYBvu09XRypG4XMkkUMlgY11LUcMywBjAlDmEP_CdND2uMA4JzlyKMXmYQG35UAZCE&quot; alt=&quot;https://i.imgur.com/7uurSUw.png&quot;&gt;&lt;/b&gt;" style="text;whiteSpace=wrap;html=1;" vertex="1" parent="1">
          <mxGeometry x="-827" width="550" height="280" as="geometry" />
        </mxCell>
        <mxCell id="53vLAQA_7V68Fcpc-zCj-2" value="please send a web page" style="rounded=0;whiteSpace=wrap;html=1;" vertex="1" parent="1">
          <mxGeometry x="-740" y="300" width="140" height="40" as="geometry" />
        </mxCell>
        <mxCell id="53vLAQA_7V68Fcpc-zCj-3" value="Application Layer" style="text;html=1;strokeColor=none;fillColor=none;align=center;verticalAlign=middle;whiteSpace=wrap;rounded=0;" vertex="1" parent="1">
          <mxGeometry x="-810" y="305" width="60" height="30" as="geometry" />
        </mxCell>
        <mxCell id="53vLAQA_7V68Fcpc-zCj-4" value="tcp &lt;font style=&quot;font-size: 11px&quot;&gt;&lt;font style=&quot;font-size: 11px&quot;&gt;source port : 11111&lt;/font&gt;&lt;br style=&quot;font-size: 11px&quot;&gt;&lt;/font&gt;&amp;nbsp; &amp;nbsp; &amp;nbsp; &amp;nbsp; destination port : 80" style="rounded=0;whiteSpace=wrap;html=1;" vertex="1" parent="1">
          <mxGeometry x="-740" y="370" width="140" height="40" as="geometry" />
        </mxCell>
        <mxCell id="53vLAQA_7V68Fcpc-zCj-5" value="Transport Layer" style="text;html=1;strokeColor=none;fillColor=none;align=center;verticalAlign=middle;whiteSpace=wrap;rounded=0;" vertex="1" parent="1">
          <mxGeometry x="-810" y="375" width="60" height="30" as="geometry" />
        </mxCell>
        <mxCell id="53vLAQA_7V68Fcpc-zCj-6" value="tcp &lt;font&gt;source port : 11111&lt;br style=&quot;font-size: 11px&quot;&gt;&amp;nbsp; &amp;nbsp; &amp;nbsp; &amp;nbsp; destination port : 80&lt;br style=&quot;font-size: 11px&quot;&gt;&lt;font style=&quot;font-size: 11px&quot;&gt;source address : 59.127.11.4&lt;/font&gt;&lt;/font&gt;" style="rounded=0;whiteSpace=wrap;html=1;" vertex="1" parent="1">
          <mxGeometry x="-740" y="440" width="150" height="80" as="geometry" />
        </mxCell>
        <mxCell id="53vLAQA_7V68Fcpc-zCj-7" value="Network&lt;br&gt;Layer" style="text;html=1;strokeColor=none;fillColor=none;align=center;verticalAlign=middle;whiteSpace=wrap;rounded=0;" vertex="1" parent="1">
          <mxGeometry x="-810" y="445" width="60" height="30" as="geometry" />
        </mxCell>
      </root>
    </mxGraphModel>
  </diagram>
</mxfile>
